<svg id="Layer_1" data-name="Layer 1" xmlns="http://www.w3.org/2000/svg" viewBox="0 0 311.36 257.75"><title>mega_black_logo</title><path d="M117,160v90.8H298.38V69.25H117Zm176,0v85.36H122.37V74.69H293Z" transform="translate(-52 -69.25)" style="fill:#010101"/><path d="M207.7,120V160h-80V240.2h80.11V160.09h80V79.9h-80ZM260,94.68a16,16,0,0,1,8.5,4.39,15.09,15.09,0,0,1,3.16,4.42,15.69,15.69,0,0,1,1.48,4.72c.12.72.14,1.6.16,9l0,8.18H241.67V114.71h21l0-2.7c0-2.58,0-2.72-.2-3.19a5.5,5.5,0,0,0-3.75-3.59c-.42-.13-1.1-.14-10.68-.16-11,0-10.87,0-11.88.35a5.56,5.56,0,0,0-2.82,2.57c-.61,1.22-.57.45-.55,12.26l0,10.5.23.65a5.56,5.56,0,0,0,3.69,3.44c.42.13,1.57.14,18.52.16l18.06,0v10.57h-18.1c-11.64,0-18.35,0-18.79-.08a16.14,16.14,0,0,1-14.14-13.72c-.13-.82-.14-1.69-.14-11.76,0-12,0-11.55.49-13.52a16.09,16.09,0,0,1,13.74-12c.31,0,5.56-.06,11.67-.05C259.07,94.52,259.16,94.52,260,94.68Zm-66.71,85.19v5.29H175.36c-20.06,0-18.43,0-19.69.57a4.09,4.09,0,0,0-1.37,1,4.27,4.27,0,0,0-1,1.37c-.61,1.24-.58.49-.56,12.25l0,10.44.2.6a5.44,5.44,0,0,0,3.7,3.53l.55.17,10,0c6.74,0,10.19,0,10.66-.06a5.34,5.34,0,0,0,4.78-4.73c0-.37.08-1.62.08-2.8v-2.13H162.39V194.82h30.89l0,8.25c0,9,0,8.69-.47,10.47A16,16,0,0,1,185,223.7a16.63,16.63,0,0,1-5.16,1.8c-.81.15-1.11.15-11.48.18-7.24,0-10.93,0-11.55-.05a16.11,16.11,0,0,1-8.28-3.18,21.61,21.61,0,0,1-2.8-2.71,16.32,16.32,0,0,1-3.45-8.15c0-.42-.08-4.39-.08-11.49,0-12,0-11.57.49-13.55a16,16,0,0,1,8.43-10.33,17.24,17.24,0,0,1,5.1-1.55c.29,0,8.7-.07,18.82-.08h18.29Z" transform="translate(-52 -69.25)" style="fill:#010101"/><path d="M155.37,93.39a16.09,16.09,0,0,0-13.56,10.85,16.86,16.86,0,0,0-.79,3.85c0,.63-.08,7.48-.08,19.8v18.83h10.8v-19c0-21.29-.05-19.44.55-20.67a4.09,4.09,0,0,1,1-1.33,4,4,0,0,1,1.4-1c1.28-.63.46-.59,13.25-.57,10.47,0,11.36,0,11.76.15a5.55,5.55,0,0,1,3.78,3.81l.17.59,0,19,0,19.05h10.72v-19q0-19-.08-19.84a16.16,16.16,0,0,0-13.17-14.37l-.83-.17H168C161.19,93.36,155.51,93.38,155.37,93.39Z" transform="translate(-52 -69.25)" style="fill:#010101"/><path d="M162.32,130.68v16H173V114.63H162.32Z" transform="translate(-52 -69.25)" style="fill:#010101"/><path d="M226.35,178.78v5.4h16.33c16.07,0,16.35,0,16.94.15a5.31,5.31,0,0,1,3.88,3.88c.15.59.15.83.15,14.26v13.65H250.31c-7.94,0-13.58,0-13.9-.08a5.93,5.93,0,0,1-2-.69,7.24,7.24,0,0,1-1.89-1.89,5.25,5.25,0,0,1-.05-5.25,5.93,5.93,0,0,1,2.23-2.11c1.28-.63.51-.58,10-.6l8.43,0V194.74l-8.92,0c-9.76,0-9.24,0-11.09.47a16.16,16.16,0,0,0-11.9,13.19,21.68,21.68,0,0,0,0,4.48A16.1,16.1,0,0,0,229.52,225a17.41,17.41,0,0,0,4.83,1.65l.87.17,19.62,0,19.61,0V208.09c0-12.25,0-19.11-.08-19.81a16.11,16.11,0,0,0-3.48-8.88,20.78,20.78,0,0,0-3-2.89,16.49,16.49,0,0,0-7.18-3c-.66-.11-2.2-.13-17.53-.15l-16.82,0Z" transform="translate(-52 -69.25)" style="fill:#010101"/><path d="M146.27,297.63a15.58,15.58,0,0,0-7.55,2.66,14.51,14.51,0,0,0-5.8,8,16.35,16.35,0,0,0,.22,9.07,14.17,14.17,0,0,0,9.9,9,22.87,22.87,0,0,0,10.25.07,30.58,30.58,0,0,0,5.19-1.63l.28-.12V312.46H149v3.78h5.51v5.88l-.77.24a29.37,29.37,0,0,1-3.19.79,19.79,19.79,0,0,1-4.77,0,11.15,11.15,0,0,1-5.26-2.4,10.17,10.17,0,0,1-3.61-6.15,9.61,9.61,0,0,1-.17-2.23,9.74,9.74,0,0,1,.49-3.53,11.18,11.18,0,0,1,6.92-7,12.44,12.44,0,0,1,4.84-.54,19.67,19.67,0,0,1,7.69,2.21l1.45.72V300l-.57-.24a29.79,29.79,0,0,0-6.71-2A39.44,39.44,0,0,0,146.27,297.63Z" transform="translate(-52 -69.25)" style="fill:#010101"/><path d="M181.34,312.12c-3.38,7.88-6.16,14.36-6.18,14.42s.25.11,2.14.1l2.16,0,1.79-4.21L183,318.2h12.25l1.92,4.23,1.91,4.23h2.14c1.84,0,2.14,0,2.12-.11s-2.91-6.55-6.44-14.41l-6.42-14.31h-3Zm9.89-2.83c1.22,2.74,2.24,5,2.25,5.06s-1.5.08-4.36.08c-2.42,0-4.38,0-4.36-.07.32-.85,4.18-10.05,4.21-10.05S190,306.56,191.24,309.29Z" transform="translate(-52 -69.25)" style="fill:#010101"/><path d="M321,299.78v1.89h9.89v25h4.23v-25h10v-3.78H321Z" transform="translate(-52 -69.25)" style="fill:#010101"/><path d="M52,312.31v14.35h4.23l0-11.06,0-11.06L60.68,310l4.42,5.45.42,0,.42,0L70.31,310l4.38-5.47,0,11.06,0,11.05H79V298H75l-4.61,5.7-4.72,5.85c-.11.14-.35-.14-4.87-5.7L56,298H52Z" transform="translate(-52 -69.25)" style="fill:#010101"/><path d="M99,312.31v14.35h16.84v-3.78H103.27V314H115v-3.7H103.27v-8.68h12.16V298H99Z" transform="translate(-52 -69.25)" style="fill:#010101"/><path d="M248,312.31v14.35h4.15l0-7,0-7,7.32,7,7.32,7h2.85c1.57,0,2.85,0,2.83-.06s-3.5-3.42-7.75-7.52-7.72-7.49-7.7-7.52,2.67-2.94,5.91-6.46,6-6.56,6.21-6.77l.33-.36h-5.29l-6,6.5-6,6.51,0-6.51,0-6.5H248Z" transform="translate(-52 -69.25)" style="fill:#010101"/><path d="M289.4,312.31v14.35h4.23V313.29h11.25v-3.7H293.62v-7.93h11.25V298H289.4Z" transform="translate(-52 -69.25)" style="fill:#010101"/><path d="M359.9,322.16a2.62,2.62,0,0,0-1.43,1.37,3,3,0,0,0,0,2,2.59,2.59,0,0,0,1.25,1.24,2.12,2.12,0,0,0,1.12.21,2.17,2.17,0,0,0,1.06-.2,2.53,2.53,0,0,0,1.25-1.18,1.89,1.89,0,0,0,.21-1.07,2.14,2.14,0,0,0-.66-1.72,2.21,2.21,0,0,0-1.79-.75A2.77,2.77,0,0,0,359.9,322.16Z" transform="translate(-52 -69.25)" style="fill:#010101"/></svg>