<svg id="Layer_1" data-name="Layer 1" xmlns="http://www.w3.org/2000/svg" viewBox="0 0 143.18 118.41"><title>mega_4c_logo</title><polygon points="10.59 105.08 12.37 105.08 12.37 118.26 10.46 118.26 10.46 108.01 6.38 113.1 6.03 113.1 1.9 108.01 1.9 118.26 0 118.26 0 105.08 1.8 105.08 6.21 110.5 10.59 105.08" style="fill:#e1134f"/><polygon points="21.63 105.08 29.15 105.08 29.15 106.76 23.52 106.76 23.52 110.78 28.96 110.78 28.96 112.47 23.52 112.47 23.52 116.56 29.33 116.56 29.33 118.24 21.63 118.24 21.63 105.08" style="fill:#e1134f"/><path d="M106.35,181.36h4.45v5.59a12.21,12.21,0,0,1-4.86,1.06,7.25,7.25,0,0,1-5.27-1.91,6.3,6.3,0,0,1-2-4.71,6.53,6.53,0,0,1,2-4.92,7.1,7.1,0,0,1,5.12-2,9.11,9.11,0,0,1,2.13.24,17.5,17.5,0,0,1,2.55.88v1.92a9.38,9.38,0,0,0-4.71-1.37,5,5,0,0,0-3.67,1.47,5.19,5.19,0,0,0,0,7.28,5.33,5.33,0,0,0,3.84,1.42,9,9,0,0,0,2.73-.52l.18-.06V183h-2.56Z" transform="translate(-61.75 -69.59)" style="fill:#e1134f"/><path d="M126.86,182.26l-2.14-4.77-2,4.77Zm-2.79-7.67h1.33l5.95,13.26h-1.94l-1.77-3.91H122l-1.66,3.91h-2Z" transform="translate(-61.75 -69.59)" style="fill:#e1134f"/><polygon points="97.63 105.08 100 105.08 94.25 111.34 101.42 118.26 98.83 118.26 92.05 111.75 92.05 118.26 90.14 118.26 90.14 105.08 92.05 105.08 92.05 111.11 97.63 105.08" style="fill:#e1134f"/><polygon points="109.18 105.08 116.26 105.08 116.26 106.76 111.08 106.76 111.08 110.44 116.26 110.44 116.26 112.12 111.08 112.12 111.08 118.26 109.18 118.26 109.18 105.08" style="fill:#e1134f"/><polygon points="123.71 105.06 134.79 105.06 134.79 106.74 130.17 106.74 130.17 118.26 128.26 118.26 128.26 106.74 123.71 106.74 123.71 105.06" style="fill:#e1134f"/><path d="M203.76,185.75a1.14,1.14,0,0,1,.83.33,1.08,1.08,0,0,1,.34.81,1,1,0,0,1-.34.79,1.16,1.16,0,0,1-.83.32,1.13,1.13,0,0,1-.82-.32,1.06,1.06,0,0,1-.33-.79,1.1,1.1,0,0,1,.33-.81,1.11,1.11,0,0,1,.82-.33" transform="translate(-61.75 -69.59)" style="fill:#e1134f"/><path d="M110.52,117.92a7.37,7.37,0,0,0-7.36,7.36v8.83a7.37,7.37,0,0,0,7.36,7.36h8.83a7.37,7.37,0,0,0,7.37-7.36v-6.87H112.48v4.91h9.33v2a2.46,2.46,0,0,1-2.46,2.45h-8.83a2.46,2.46,0,0,1-2.45-2.45v-8.83a2.46,2.46,0,0,1,2.45-2.46h16.2v-4.9Z" transform="translate(-61.75 -69.59)" style="fill:#ffdf00"/><path d="M147.32,81.12A7.37,7.37,0,0,0,140,88.48v8.83a7.37,7.37,0,0,0,7.36,7.36h16.2V99.76h-16.2a2.45,2.45,0,0,1-2.45-2.45V88.48A2.46,2.46,0,0,1,147.32,86h8.84a2.46,2.46,0,0,1,2.45,2.46v2h-9.67v4.91h14.58V88.48a7.37,7.37,0,0,0-7.36-7.36Z" transform="translate(-61.75 -69.59)" style="fill:#ffdf00"/><path d="M172.59,150.55H94.08V72h78.51Zm-81,2.45H175V69.59H91.63Z" transform="translate(-61.75 -69.59)" style="fill:#e1134f"/><path d="M164,142H146.83a7.36,7.36,0,0,1,0-14.72h7.36v4.91h-7.36a2.45,2.45,0,1,0,0,4.9H159.1V124.79a2.46,2.46,0,0,0-2.46-2.45H141.93v-4.91h14.72a7.37,7.37,0,0,1,7.36,7.36Zm-30.67,6.14h36.8V111.29h-36.8Z" transform="translate(-61.75 -69.59)" style="fill:#ffdf00"/><path d="M127.2,105.16h-4.91V88a2.46,2.46,0,0,0-2.45-2.45H110A2.46,2.46,0,0,0,107.57,88v17.17h-4.9V88A7.37,7.37,0,0,1,110,80.62h9.82A7.37,7.37,0,0,1,127.2,88Zm-9.81,0h-4.91V90.44h4.91Zm-20.86,6.13h36.81V74.49H96.53Z" transform="translate(-61.75 -69.59)" style="fill:#ffdf00"/><path d="M126.71,122.82h-16.2a2.46,2.46,0,0,0-2.45,2.46v8.83a2.46,2.46,0,0,0,2.45,2.45h8.83a2.46,2.46,0,0,0,2.46-2.45v-2h-9.33v-4.91h14.24v6.87a7.37,7.37,0,0,1-7.37,7.36h-8.83a7.37,7.37,0,0,1-7.36-7.36v-8.83a7.37,7.37,0,0,1,7.36-7.36h16.2ZM96.53,148.1h36.81V111.29H96.53Z" transform="translate(-61.75 -69.59)" style="fill:#e1134f"/><path d="M163.52,95.35H148.94V90.44h9.67v-2A2.46,2.46,0,0,0,156.16,86h-8.84a2.46,2.46,0,0,0-2.45,2.46v8.83a2.45,2.45,0,0,0,2.45,2.45h16.2v4.91h-16.2A7.37,7.37,0,0,1,140,97.31V88.48a7.37,7.37,0,0,1,7.36-7.36h8.84a7.37,7.37,0,0,1,7.36,7.36Zm-30.18,15.94h36.8V74.49h-36.8Z" transform="translate(-61.75 -69.59)" style="fill:#e1134f"/><path d="M141.93,117.42v4.91h14.72a2.45,2.45,0,0,1,2.45,2.45v12.27H146.83a2.45,2.45,0,1,1,0-4.9h7.36v-4.91h-7.36a7.36,7.36,0,0,0,0,14.72H164V124.78a7.37,7.37,0,0,0-7.36-7.36Z" transform="translate(-61.75 -69.59)" style="fill:#e1134f"/><path d="M111.4,81.87A7.37,7.37,0,0,0,104,89.23v17.18h4.91V89.23a2.46,2.46,0,0,1,2.45-2.45h9.82a2.45,2.45,0,0,1,2.45,2.45v17.18h4.91V89.23a7.37,7.37,0,0,0-7.36-7.36Z" transform="translate(-61.75 -69.59)" style="fill:#e1134f"/><rect x="50.73" y="20.85" width="4.91" height="14.72" style="fill:#e1134f"/></svg>