<?xml version="1.0" encoding="utf-8"?>
<!-- Generator: Adobe Illustrator 21.1.0, SVG Export Plug-In . SVG Version: 6.00 Build 0)  -->
<svg version="1.1" id="Layer_1" xmlns="http://www.w3.org/2000/svg" xmlns:xlink="http://www.w3.org/1999/xlink" x="0px" y="0px"
	 viewBox="0 0 7502 5447" style="enable-background:new 0 0 7502 5447;" xml:space="preserve">
<path d="M242,63c0,55.3,0.2,63,1.5,63s1.5-7.7,1.5-63s-0.2-63-1.5-63S242,7.7,242,63z"/>
<path d="M7257,63c0,55.3,0.2,63,1.5,63c1.3,0,1.5-7.7,1.5-63s-0.2-63-1.5-63C7257.2,0,7257,7.7,7257,63z"/>
<path d="M0,243.5c0,1.3,7.7,1.5,63,1.5s63-0.2,63-1.5s-7.7-1.5-63-1.5S0,242.2,0,243.5z"/>
<path d="M7377,243.5c0,1.3,7.6,1.5,62.5,1.5s62.5-0.2,62.5-1.5s-7.6-1.5-62.5-1.5S7377,242.2,7377,243.5z"/>
<path d="M2550,2138.5V3341h1201h1201V2138.5V936H3751H2550V2138.5z M4881,2138.5V3269H3751H2621V2138.5V1008h1130h1130V2138.5z"/>
<path d="M3751,1607.5V2138h-530h-530v531v531h530.5H3752v-530.5V2139h529.5H4811v-531v-531h-530h-530V1607.5z M4443.5,1272.8
	c45.1,8.8,81.9,27.8,112.6,58.2c18.4,18.2,30.7,35.4,41.9,58.5c10.2,20.9,15.4,37.6,19.6,62.5c1.6,9.5,1.8,21.2,2.1,118.7l0.4,108.3
	h-209.5H4201v-70.5V1538h139.1h139l-0.3-35.8c-0.4-34.2-0.5-36-2.7-42.2c-8.4-24-25.6-40.5-49.6-47.6c-5.6-1.7-14.6-1.9-141.4-2.1
	c-145.4-0.4-143.9-0.4-157.3,4.7c-15.1,5.7-29.7,19.1-37.3,34.1c-8.1,16.2-7.6,6-7.3,162.4l0.3,139l3.1,8.6
	c7.8,21.9,26.1,39,48.9,45.6c5.6,1.7,20.8,1.8,245.3,2.1l239.2,0.2v70v70h-239.7c-154.1,0-243-0.4-248.8-1
	c-48.3-5.4-92.7-26.9-127-61.4c-33.1-33.2-53.1-73.2-60.2-120.3c-1.7-10.9-1.8-22.4-1.8-155.8c0-159.4-0.2-152.9,6.5-179.1
	c22-85.3,94.5-148.3,182-158.3c4.1-0.5,73.7-0.8,154.5-0.7C4431.4,1270.6,4432.6,1270.6,4443.5,1272.8z M3560,2401v70h-237.2
	c-265.7,0-244.1-0.6-260.8,7.6c-8,3.9-10.9,6.1-18.1,13.3c-7.1,7.2-9.5,10.4-13.3,18.2c-8.1,16.4-7.7,6.5-7.4,162.2l0.3,138.2l2.7,8
	c7.8,23,24.9,39.3,49,46.7l7.3,2.2l132,0.4c89.2,0.2,135,0,141.2-0.8c33.9-3.9,59.4-29.2,63.3-62.7c0.5-4.9,1-21.5,1-37.1V2739
	h-134.5H3151v-70v-70h204.5h204.6l-0.4,109.2c-0.4,119-0.2,115.1-6.2,138.7c-14.7,57.9-51.6,105.8-103.6,134.6
	c-20.9,11.5-41.6,18.7-68.4,23.8c-10.7,2-14.7,2-152,2.4c-95.9,0.3-144.8,0.1-153-0.7c-40-3.6-78.2-18.2-109.7-42.1
	c-10.3-7.8-29-25.9-37.1-35.9c-24.6-30.4-40.8-68.7-45.7-108c-0.6-5.5-1-58.1-1-152.2c0-159-0.2-153.2,6.5-179.4
	c15.2-59.3,55.9-109.2,111.6-136.8c20-9.9,45.4-17.6,67.5-20.5c3.8-0.5,115.2-0.9,249.2-1l242.2-0.1V2401z"/>
<path d="M3058,1255.7c-82.7,8.6-153.4,65.2-179.6,143.7c-5.4,16.2-9,34.1-10.4,51c-0.6,8.4-1,99.1-1,262.2V1962h71.5h71.5v-252.2
	c0-281.9-0.7-257.4,7.3-273.8c3.3-6.9,5.8-10.2,13.2-17.6c7.7-7.8,10.4-9.8,18.5-13.7c16.9-8.3,6.1-7.8,175.5-7.5
	c138.7,0.3,150.4,0.4,155.7,2c24.7,7.5,43.1,26.1,50.1,50.5l2.2,7.8l0.3,252.2l0.2,252.3h71h71v-251.3c0-167.4-0.4-255-1.1-262.7
	c-6.7-73.5-50.5-137.7-116.7-170.9c-18.6-9.3-34.8-14.8-57.7-19.4l-11-2.2l-163.5-0.1C3135.1,1255.3,3059.9,1255.5,3058,1255.7z"/>
<path d="M3150,1749.5V1962h71h71v-212.5V1537h-71h-71V1749.5z"/>
<path d="M3998,2386.5v71.5h216.3c212.8,0,216.5,0,224.3,2c25.5,6.4,44.9,25.8,51.4,51.4c2,7.8,2,11,2,188.8V2881h-176.7
	c-105.1,0-179.8-0.4-184.1-1c-8.9-1.2-19.5-4.8-27-9.2c-7.3-4.2-20.8-17.7-25-25c-12.6-21.5-12.9-47.4-0.7-69.5
	c5.8-10.4,18.8-22.8,29.5-28c16.9-8.3,6.8-7.7,132.3-8l111.7-0.4v-71v-71l-118.2,0.4c-129.3,0.3-122.4,0-146.9,6.2
	c-37,9.4-69.9,28.3-97.5,55.9c-32.9,33-53,72.7-60.1,118.8c-2.1,14-2.4,46.2-0.4,59.3c10.2,69.6,50,126.8,111.1,159.8
	c17.6,9.5,40.8,17.5,64,21.9l11.5,2.2l259.8,0.3l259.7,0.3v-248.2c0-162.3-0.4-253.1-1-262.3c-3.3-43.2-19.1-83.8-46.1-117.6
	c-8.9-11.1-29.3-30.8-39.8-38.3c-29.4-21-57.4-32.6-95.1-39.3c-8.7-1.5-29.2-1.7-232.2-2l-222.8-0.4V2386.5z"/>
<path d="M2937.5,3960.6c-39.1,4-71.3,15.3-100,35.2c-37.9,26.2-65,63.7-76.8,106.2c-10.4,37.6-9.3,85,2.9,120.1
	c20.2,58.5,70.1,103.9,131.1,119.3c41.5,10.5,88.3,10.9,135.8,0.9c20.9-4.3,48.2-12.9,68.8-21.6l3.7-1.6v-81V4157h-64.5H2974v25v25
	h36.5h36.5v39v38.9l-10.2,3.2c-13.6,4.2-30,8.3-42.3,10.5c-13.8,2.6-49.8,2.6-63.2,0.1c-27.7-5.2-49.7-15.3-69.7-31.8
	c-25.6-21.2-41.1-47.4-47.8-81.4c-1.8-8.9-2.2-14.5-2.2-29.5c0-20.7,1.3-30.5,6.5-46.7c13.5-42.1,49.4-78.2,91.7-92.3
	c19.7-6.5,41.3-8.9,64.1-7.2c36.3,2.9,66,11.4,101.9,29.3l19.2,9.6v-28.3v-28.2l-7.6-3.2c-32.8-13.6-63.2-22.7-88.9-26.6
	C2988.9,3960.9,2946.4,3959.7,2937.5,3960.6z"/>
<path d="M3402,4152.5c-44.8,104.3-81.6,190.2-81.8,191c-0.3,1.3,3.3,1.5,28.3,1.3l28.6-0.3l23.7-55.8l23.6-55.7h81.1h81.1l25.4,56
	l25.3,56h28.4c24.4,0,28.4-0.2,28.1-1.5c-0.2-0.8-38.5-86.7-85.3-190.9l-85-189.5l-20-0.1h-20L3402,4152.5z M3533,4115
	c16.2,36.3,29.7,66.5,29.8,67c0.3,0.7-19.9,1-57.8,1c-32,0-58-0.4-57.8-0.9c4.3-11.3,55.4-133.1,55.8-133.1
	C3503.3,4049.1,3516.8,4078.8,3533,4115z"/>
<path d="M5251,3989v25h65.5h65.5v165.5V4345h28h28v-165.5V4014h66.5h66.5v-25v-25h-160h-160V3989z"/>
<path d="M1689,4155v190h28h28l0.2-146.5l0.3-146.5l58.5,72.3l58.5,72.2l5.5,0.3l5.5,0.3l58-72.5l58-72.5l0.3,146.5l0.2,146.4h28h28
	v-190v-190l-26.2,0.1h-26.3l-61,75.5c-33.5,41.5-61.7,76.4-62.5,77.5c-1.5,1.9-4.7-1.9-64.5-75.5l-63-77.5h-26.7l-26.8-0.1V4155z"/>
<path d="M2312,4155v190h111.5H2535v-25v-25h-83.5H2368v-58.5V4178h78h78v-24.5V4129h-78h-78v-57.5V4014h80.5h80.5v-24.5V3965h-108.5
	H2312V4155z"/>
<path d="M4285,4155v190h27.5h27.5l0.2-93.1l0.3-93.1l97,93.1l97,93.1h37.8c20.8,0,37.7-0.4,37.5-0.8c-0.1-0.5-46.3-45.3-102.6-99.6
	c-56.3-54.4-102.2-99.2-102-99.6c0.2-0.5,35.4-39,78.3-85.6c42.9-46.6,80-86.9,82.3-89.6l4.4-4.8h-35.1h-35l-79.8,86.1l-79.8,86.2
	l-0.3-86.2l-0.2-86.1h-27.5H4285V4155z"/>
<path d="M4833,4155v190h28h28v-88.5V4168h74.5h74.5v-24.5V4119h-74.5H4889v-52.5V4014h74.5h74.5v-24.5V3965h-102.5H4833V4155z"/>
<path d="M5766.7,4285.5c-8.1,3.1-15.2,9.8-18.9,18.2c-3.1,6.7-3.1,19.8-0.1,26.5c3.2,7,9.4,13.1,16.6,16.4c5.3,2.4,7.5,2.8,14.8,2.8
	c7-0.1,9.5-0.5,14.1-2.6c7.5-3.5,13.2-8.8,16.5-15.6c2.4-4.9,2.8-6.9,2.8-14.2c0-10.2-2.3-16.2-8.8-22.8c-6.9-7.2-12.6-9.5-23.7-9.9
	C5773.4,4284.1,5769.3,4284.5,5766.7,4285.5z"/>
<path d="M0,5207.5c0,1.3,7.7,1.5,63,1.5s63-0.2,63-1.5s-7.7-1.5-63-1.5S0,5206.2,0,5207.5z"/>
<path d="M7377,5207.5c0,1.3,7.6,1.5,62.5,1.5s62.5-0.2,62.5-1.5s-7.6-1.5-62.5-1.5S7377,5206.2,7377,5207.5z"/>
<path d="M242,5386c0,53.6,0.2,61,1.5,61s1.5-7.4,1.5-61s-0.2-61-1.5-61S242,5332.4,242,5386z"/>
<path d="M7257,5386c0,53.6,0.2,61,1.5,61c1.3,0,1.5-7.4,1.5-61s-0.2-61-1.5-61C7257.2,5325,7257,5332.4,7257,5386z"/>
</svg>
